Patient4_TMGait_0pt6_02_right_36_EMG.mot
version=1
nRows=20
nColumns=33
inDegrees=no
endheader
time	1LAddLong	2LGlutMax	3LGlutMed	4LIliopsoas	5LSemiMemb	6LBicFemLong	7LRecFem	8LVastMed	9LVastLat	10LGasMed	11LTibAnt	12lTibPost	13LPeroneusLong	14LSol	15LExtDigLong	16LFlexDigLong	17RAddLong	18RGlutMax	19RGlutMed	20RIliopsoas	21RSemiMemb	22RBicFemLong	23RRecFem	24RVastMed	25RVastLat	26RGasMed	27RTibAnt	28RTibPost	29RPeroneusLong	30RSol	31RExtDigLong	32RFlexDigLong
43.742	-0.00824	-0.33814	-0.008698	-0.038757	0.024872	-0.029449	0.093994	-0.006256	0.018311	-0.018463	-0.12177	0.006866	-0.062256	0.076141	0.51132	0.033264	-0.025635	0.074921	-0.96725	-0.010223	0.30701	0.65887	0.19882	0.054474	-0.077209	-0.090179	-0.07782	-0.075836	-1.7366	-0.28107	-0.004272	0.028534
43.743	-0.013275	-0.26016	0.032349	-0.024414	0.019379	-0.023651	0.079193	-0.009613	0.032349	-0.006561	-0.089264	-0.000763	-0.043945	0.007782	0.020294	0.020905	0.007324	-0.037079	0.33829	-0.16098	0.30991	0.54657	0.20615	0.20401	-0.034332	-0.069427	0.033569	-0.036621	-0.67062	-0.62195	-0.003357	0.019226
43.744	-0.011749	-0.14358	0.048523	-0.012054	0.011139	-0.018616	0.036926	-0.011444	0.040436	0.008392	-0.058746	0.00946	-0.052032	-0.067291	0.09079	0.018005	-0.044556	-0.23483	0.43533	-0.22537	0.005951	0.33478	0.18677	0.19821	-0.041199	0.13504	0.001373	0.024109	1.5039	-0.41992	0.005188	0.005188
43.745	-0.015411	-0.043793	0.009003	0.015106	0.01709	-0.01236	0.028992	0	0.02533	-0.015564	-0.08255	0.006866	-0.057068	-0.077515	-0.059509	0.012207	-0.042572	-0.38467	1.346	-0.28946	-0.29923	-0.30151	0.19623	0.15945	-0.037994	0.33646	-0.017853	-0.066833	1.8964	0.089874	-0.004272	-0.004578
43.746	-0.014801	0.070343	-0.02655	0.028381	0.012817	-0.011292	0.041809	0.009308	0.028687	0.018768	-0.11978	0.010376	-0.085144	-0.02243	0.22873	0.015259	-0.003967	-0.56671	0.74265	-0.066528	-0.92285	-0.64697	0.26688	0.12604	-0.070953	0.21973	0.027161	-0.11795	-0.048523	0.14969	-0.008698	-0.009003
43.747	-0.014496	0.20294	0.011292	0.002594	0.013123	-0.007782	0.073547	0.002899	0.02655	0.00824	-0.008087	0.004578	-0.12177	0.051117	0.28473	0.028687	0.022125	-0.74554	0.48187	0.13672	-0.50629	-0.70129	0.29175	0.12787	-0.070038	0.1152	0.093536	0.022125	-0.65933	0.15411	-0.005188	-0.020447
43.748	-0.02243	0.30792	0.022278	0.01236	-0.003204	-0.016327	0.103	-0.011749	0.046997	-0.046539	-0.035095	0.005798	-0.085144	0.08606	0.17853	0.017548	0.006866	-0.89661	0.14465	0.2327	0.36499	-0.57495	0.28946	0.12482	-0.088806	0.078888	0.1384	0.12207	-0.10773	0.063629	0.002899	-0.016937
43.749	-0.010986	0.35934	0.027466	0.021973	0.023804	0.001526	0.14908	-0.009766	0.038147	-0.042419	-0.033569	0.009155	-0.075836	0.12283	-0.039063	0.018921	-0.044403	-1.1842	0.001984	0.085602	0.4039	-0.42114	0.30395	0.0737	-0.1091	-0.016327	0.071411	0.1149	0.79804	0.030518	-0.006104	-0.018005
43.75	-0.007172	0.41534	0.046539	0.00473	0.008087	0.02533	0.13718	-0.010223	0.033417	0.012512	0.15243	0.00824	-0.11505	0.13825	0.083618	0.019684	-0.057983	-1.4906	-0.46814	-0.010834	0.24689	-0.32257	0.43274	0.06485	-0.16815	-0.11612	0.068207	0.057678	1.4377	0.25146	-0.006256	-0.019684
43.751	-0.002899	0.55313	0.054016	-0.026245	0.006104	0.001831	0.13016	0.001221	0.038757	0.020447	0.024414	0.005951	-0.10468	0.1532	0.098724	0.014038	-0.046692	-1.7671	-0.67856	-0.092621	0.21149	-0.11551	0.54428	0.020294	-0.2533	-0.15076	0.048218	-0.012512	1.3858	0.13855	-0.00412	-0.020294
43.752	-0.012817	0.62073	0.045166	-0.020905	0.008392	0.001221	0.097656	-0.007782	0.036163	0.012207	-0.033112	0.003815	-0.04303	0.1384	-0.037079	0.007324	-0.056152	-1.9601	-0.24155	0.003815	0.097198	0.057983	0.50125	-0.005646	-0.025482	-0.11993	0.046692	-0.005798	0.72281	0.16739	-0.007019	-0.021515
43.753	-0.015106	0.64087	0.044098	-0.016785	0.001831	0.009003	0.099487	-0.003357	0.035706	-0.010376	0.047913	-0.006409	0.067902	0.11353	-0.22263	0.010681	-0.055542	-2.0712	-0.3331	0.22369	0.14511	-0.079193	0.58746	-0.065308	0.29434	-0.066681	-0.024109	0.009766	-0.51117	0.12146	-0.003967	-0.020905
43.754	-0.022888	0.73379	0.050049	-0.004425	-0.001373	0.00351	0.18402	0.001068	0.050507	-0.00061	0.21072	-0.000153	0.044098	0.14755	-0.04837	0.003662	-0.044403	-2.0589	-0.26901	0.35416	0.091858	-0.32364	0.53589	-0.12634	0.26169	-0.15427	-0.021667	-0.048218	-0.81818	0.2945	-0.007782	-0.015259
43.755	-0.018005	0.76126	0.04364	-0.007782	0.011292	-0.009308	0.1889	-0.003967	0.0354	-0.001678	0.28778	0.012207	-0.025024	0.1886	0.16922	-0.014191	-0.011139	-2.0436	-0.21347	0.23453	0.059204	-0.28488	0.3418	-0.094299	0.19653	-0.17502	-0.032043	-0.092316	-0.73959	0.61523	-0.006104	-0.011444
43.756	-0.010681	0.75913	0.039368	-0.00351	0.005798	0.014038	0.092621	0.005341	0.031891	0.000153	0.007477	0.005341	-0.062256	0.26504	0.47165	-0.019379	0.013733	-1.9914	0.31921	0.050659	0.20416	-0.28076	0.22873	-0.054169	0.087891	0.041656	-0.033264	0.002594	-0.16983	0.72464	-0.010834	-0.014343
43.757	-0.019836	0.74539	0.037537	-0.003357	0.010681	0.004883	0.009308	0.002441	0.040588	-0.005798	-0.074921	0.005646	-0.071716	0.19821	-0.20554	-0.007172	0.071564	-2.0163	-0.22064	0.002289	0.18524	-0.54336	0.11658	-0.20355	-0.073242	-0.009613	0.023651	0.29144	0.036163	0.47669	-0.00412	-0.019836
43.758	-0.019836	0.74402	0.028534	-0.014648	0.008545	-0.006104	-0.051422	0.00473	0.048065	0.02243	-0.28656	0.00412	-0.092316	0.10941	-0.11429	-0.00885	0.093536	-2.0313	-0.51407	-0.042877	0.14725	-0.77454	0.063782	-0.1648	-0.28366	-0.12314	0.068512	0.10132	-0.45685	0.084229	0.001678	-0.015717
43.759	-0.018005	0.72678	0.02243	-0.038452	0.015717	-0.020294	-0.061188	0.004272	0.040588	0.036926	-0.1268	0.004425	-0.081329	0.06546	-0.66483	-0.006104	0.064392	-2.1188	-0.66559	-0.009308	0.055695	-0.89096	0.39291	-0.089874	-0.63355	-0.073853	0.040283	-0.10483	-0.73013	-0.020599	-0.006409	-0.011292
43.76	-0.018768	0.73379	-0.001068	-0.036621	0.016632	-0.028992	0.006104	0.004883	0.050354	0.043488	-0.057678	0.002136	-0.040283	0.055847	-0.77728	-0.004272	0.02655	-2.0236	-0.45502	-0.004272	-0.13214	-0.76218	0.48492	0.005341	-0.63339	0.034332	-0.014343	-0.060883	0.5809	-0.024109	-0.005798	-0.016174
43.761	-0.018005	0.79895	0.00824	0.025177	0.007172	-0.034332	0.066223	0.007172	0.054626	0.016327	-0.0354	-0.00351	-0.018158	0.11749	-0.35797	-0.00473	-0.029602	-1.9087	-0.95184	0.006409	-0.17914	-0.74509	0.2153	0.1239	-0.35599	0.087128	-0.06134	-0.014954	0.9903	-0.03479	-0.00473	-0.015259
